# Blender v2.80 (sub 75) OBJ File: ''
# www.blender.org
mtllib testDebugRay.mtl
o Cube.001_Cube.002
v -2.000000 2.000000 -10.000000
v -2.000000 6.000000 -10.000000
v -2.000000 2.000000 -14.000000
v -2.000000 6.000000 -14.000000
v 2.000000 2.000000 -10.000000
v 2.000000 6.000000 -10.000000
v 2.000000 2.000000 -14.000000
v 2.000000 6.000000 -14.000000
vt 0.625000 0.000000
vt 0.375000 0.250000
vt 0.375000 0.000000
vt 0.625000 0.250000
vt 0.375000 0.500000
vt 0.625000 0.500000
vt 0.375000 0.750000
vt 0.625000 0.750000
vt 0.375000 1.000000
vt 0.125000 0.750000
vt 0.125000 0.500000
vt 0.875000 0.500000
vt 0.625000 1.000000
vt 0.875000 0.750000
vn -1.0000 0.0000 0.0000
vn 0.0000 0.0000 -1.0000
vn 1.0000 0.0000 0.0000
vn 0.0000 0.0000 1.0000
vn 0.0000 -1.0000 0.0000
vn 0.0000 1.0000 0.0000
usemtl None
s off
f 2/1/1 3/2/1 1/3/1
f 4/4/2 7/5/2 3/2/2
f 8/6/3 5/7/3 7/5/3
f 6/8/4 1/9/4 5/7/4
f 7/5/5 1/10/5 3/11/5
f 4/12/6 6/8/6 8/6/6
f 2/1/1 4/4/1 3/2/1
f 4/4/2 8/6/2 7/5/2
f 8/6/3 6/8/3 5/7/3
f 6/8/4 2/13/4 1/9/4
f 7/5/5 5/7/5 1/10/5
f 4/12/6 2/14/6 6/8/6
o Pyra
v 5.000000 2.000001 -5.000000
v 5.000000 1.999999 5.000000
v 5.000000 0.000001 -5.000000
v 5.000000 -0.000001 5.000000
v -5.000000 2.000001 -5.000000
v -5.000000 0.000001 -5.000000
v -5.000000 1.999999 5.000000
v -5.000000 -0.000001 5.000000
v 1.500000 2.000000 -1.500000
v -1.500000 2.000000 -1.500000
v -1.500000 2.000000 1.500000
v 1.500000 2.000000 1.500000
v 1.500000 5.000000 -1.499999
v 1.500000 5.000000 1.500001
v -1.500000 5.000000 -1.499999
v -1.500000 5.000000 1.500001
vn 1.0000 -0.0000 0.0000
vn 0.0000 0.0000 -1.0000
vn -1.0000 0.0000 0.0000
vn 0.0000 -0.0000 1.0000
vn 0.0000 1.0000 0.0000
vn 0.0000 -1.0000 -0.0000
usemtl None
s 1
f 9//7 10//7 11//7
f 11//7 10//7 12//7
f 13//8 9//8 14//8
f 14//8 9//8 11//8
f 15//9 13//9 16//9
f 16//9 13//9 14//9
f 10//10 15//10 12//10
f 12//10 15//10 16//10
f 17//11 9//11 18//11
f 18//11 9//11 13//11
f 18//11 13//11 19//11
f 19//11 13//11 15//11
f 19//11 15//11 20//11
f 20//11 15//11 10//11
f 20//11 10//11 17//11
f 17//11 10//11 9//11
f 16//12 14//12 12//12
f 12//12 14//12 11//12
f 21//7 22//7 17//7
f 17//7 22//7 20//7
f 23//8 21//8 18//8
f 18//8 21//8 17//8
f 24//9 23//9 19//9
f 19//9 23//9 18//9
f 22//10 24//10 20//10
f 20//10 24//10 19//10
f 23//11 24//11 21//11
f 21//11 24//11 22//11
